<?xml version="1.0" standalone="no"?>
<!DOCTYPE svg PUBLIC "-//W3C//DTD SVG 20010904//EN"
 "http://www.w3.org/TR/2001/REC-SVG-20010904/DTD/svg10.dtd">
<svg version="1.0" xmlns="http://www.w3.org/2000/svg"
 width="178.000000pt" height="94.000000pt" viewBox="0 0 178.000000 94.000000"
 preserveAspectRatio="xMidYMid meet">

<g transform="translate(0.000000,94.000000) scale(0.100000,-0.100000)"
fill="#000000" stroke="none">
<path d="M1104 725 c-7 -18 3 -35 21 -35 15 0 24 19 18 38 -6 17 -32 15 -39
-3z"/>
<path d="M590 610 c19 -37 30 -75 30 -100 0 -33 3 -40 20 -40 16 0 20 7 20 35
0 20 14 62 30 95 35 70 35 70 12 70 -11 0 -26 -16 -39 -42 l-21 -43 -17 43
c-14 33 -22 42 -41 42 l-24 0 30 -60z"/>
<path d="M803 653 c-4 -10 -21 -54 -39 -98 -28 -69 -30 -81 -16 -84 8 -2 21 4
27 13 16 21 81 22 89 1 3 -8 15 -15 27 -15 16 0 20 4 14 18 -4 9 -21 54 -38
100 -31 80 -51 100 -64 65z m31 -79 c10 -26 7 -34 -15 -34 -15 0 -19 4 -15 16
3 9 6 20 6 25 0 15 17 10 24 -7z"/>
<path d="M962 654 c-40 -28 -22 -83 35 -105 30 -11 30 -39 0 -39 -13 0 -28 5
-33 10 -8 8 -15 6 -23 -4 -10 -11 -8 -17 11 -30 46 -33 108 -7 108 44 0 24 -7
33 -40 50 -51 26 -55 55 -6 46 41 -8 59 10 31 31 -25 17 -55 17 -83 -3z"/>
<path d="M1100 570 c0 -93 1 -100 20 -100 19 0 20 7 20 100 0 93 -1 100 -20
100 -19 0 -20 -7 -20 -100z"/>
<path d="M1190 570 c0 -93 1 -100 20 -100 18 0 20 7 20 61 l0 60 56 -60 c31
-34 60 -61 65 -61 5 0 9 45 9 100 0 93 -1 100 -20 100 -18 0 -20 -7 -20 -57
l0 -57 -58 57 c-32 31 -61 57 -65 57 -4 0 -7 -45 -7 -100z"/>
<path d="M752 434 c-37 -26 -27 -74 20 -99 21 -11 38 -26 38 -32 0 -16 -42
-17 -56 -3 -8 8 -15 6 -24 -5 -12 -14 -11 -18 1 -26 52 -34 114 -14 114 36 0
23 -8 35 -37 54 -50 32 -50 53 -2 49 44 -4 55 14 19 30 -34 16 -46 15 -73 -4z"/>
<path d="M890 350 l0 -100 55 0 c48 0 55 2 55 20 0 16 -7 20 -35 20 -28 0 -35
4 -35 20 0 15 7 20 25 20 18 0 25 5 25 20 0 15 -7 20 -25 20 -18 0 -25 5 -25
20 0 16 7 20 35 20 28 0 35 4 35 20 0 18 -7 20 -55 20 l-55 0 0 -100z"/>
<path d="M1040 430 c0 -17 7 -20 46 -20 l46 0 -46 -64 c-71 -100 -72 -96 28
-96 79 0 86 2 86 20 0 17 -7 20 -51 20 l-51 0 46 64 c71 99 71 96 -23 96 -74
0 -81 -2 -81 -20z"/>
<path d="M1230 350 l0 -100 60 0 c53 0 60 2 60 20 0 16 -7 20 -35 20 -28 0
-35 4 -35 20 0 15 7 20 25 20 18 0 25 5 25 20 0 15 -7 20 -25 20 -18 0 -25 5
-25 20 0 16 7 20 35 20 28 0 35 4 35 20 0 18 -7 20 -60 20 l-60 0 0 -100z"/>
<path d="M1390 350 c0 -93 1 -100 20 -100 16 0 20 7 20 35 0 19 4 35 9 35 5 0
18 -16 30 -35 13 -22 28 -35 41 -35 25 0 25 7 1 44 -17 26 -18 32 -5 50 37 53
1 106 -71 106 l-45 0 0 -100z m85 35 c0 -13 -8 -21 -22 -23 -19 -3 -23 1 -23
23 0 22 4 26 23 23 14 -2 22 -10 22 -23z"/>
</g>
</svg>
